<mxfile host="65bd71144e" scale="10" border="10">
    <diagram id="PJhBvZbjIUu8iOUgB9s-" name="ページ1">
        <mxGraphModel dx="1296" dy="925" grid="1" gridSize="10" guides="1" tooltips="1" connect="1" arrows="1" fold="1" page="1" pageScale="1" pageWidth="827" pageHeight="1169" background="#ffffff" math="0" shadow="0">
            <root>
                <mxCell id="0"/>
                <mxCell id="1" parent="0"/>
                <mxCell id="42" value="#008 AIとの会話を終了する" style="swimlane;whiteSpace=wrap;html=1;swimlaneLine=1;startSize=20;rounded=0;" parent="1" vertex="1">
                    <mxGeometry x="40" y="40" width="760" height="840" as="geometry"/>
                </mxCell>
                <mxCell id="47" value="ユーザー" style="swimlane;whiteSpace=wrap;html=1;" parent="42" vertex="1">
                    <mxGeometry y="20" width="320" height="820" as="geometry">
                        <mxRectangle y="20" width="90" height="30" as="alternateBounds"/>
                    </mxGeometry>
                </mxCell>
                <mxCell id="105" style="edgeStyle=none;html=1;exitX=0.5;exitY=1;exitDx=0;exitDy=0;entryX=0.5;entryY=0;entryDx=0;entryDy=0;" parent="47" source="49" target="50" edge="1">
                    <mxGeometry relative="1" as="geometry"/>
                </mxCell>
                <mxCell id="49" value="" style="ellipse;whiteSpace=wrap;html=1;aspect=fixed;fillColor=#000000;" parent="47" vertex="1">
                    <mxGeometry x="147.5" y="71" width="40" height="40" as="geometry"/>
                </mxCell>
                <mxCell id="50" value="「感情分析AIとの会話を終了」&lt;br&gt;を選択する" style="rounded=1;whiteSpace=wrap;html=1;fillColor=none;" parent="47" vertex="1">
                    <mxGeometry x="78.75" y="151" width="177.5" height="40" as="geometry"/>
                </mxCell>
                <mxCell id="81" value="感情分析AIとの会話の終了について，&lt;br&gt;「取り消し」か「確定」かを&lt;br&gt;選択する" style="rounded=1;whiteSpace=wrap;html=1;fillColor=none;" parent="47" vertex="1">
                    <mxGeometry x="60" y="370" width="215" height="50" as="geometry"/>
                </mxCell>
                <mxCell id="83" value="" style="rhombus;whiteSpace=wrap;html=1;rounded=0;shadow=0;sketch=0;fillStyle=auto;strokeColor=default;strokeWidth=1;fontColor=#000000;fillColor=none;" parent="47" vertex="1">
                    <mxGeometry x="230" y="491" width="40" height="25" as="geometry"/>
                </mxCell>
                <mxCell id="84" style="edgeStyle=orthogonalEdgeStyle;html=1;exitX=0.5;exitY=1;exitDx=0;exitDy=0;entryX=0;entryY=0.5;entryDx=0;entryDy=0;fontColor=#000000;rounded=0;" parent="47" source="81" target="83" edge="1">
                    <mxGeometry relative="1" as="geometry"/>
                </mxCell>
                <mxCell id="48" value="システム" style="swimlane;whiteSpace=wrap;html=1;" parent="42" vertex="1">
                    <mxGeometry x="320" y="20" width="440" height="820" as="geometry">
                        <mxRectangle x="320" y="20" width="90" height="30" as="alternateBounds"/>
                    </mxGeometry>
                </mxCell>
                <mxCell id="51" value="「操作の確認を行う画面」&lt;br&gt;を表示する" style="rounded=1;whiteSpace=wrap;html=1;fillColor=none;" parent="48" vertex="1">
                    <mxGeometry x="107.5" y="151" width="170" height="40" as="geometry"/>
                </mxCell>
                <mxCell id="90" style="edgeStyle=orthogonalEdgeStyle;rounded=0;html=1;exitX=0.5;exitY=1;exitDx=0;exitDy=0;entryX=0.5;entryY=0;entryDx=0;entryDy=0;fontColor=#000000;" parent="48" source="87" target="88" edge="1">
                    <mxGeometry relative="1" as="geometry"/>
                </mxCell>
                <mxCell id="87" value="日記の記録内容を&lt;br&gt;削除する" style="rounded=1;whiteSpace=wrap;html=1;fillColor=none;" parent="48" vertex="1">
                    <mxGeometry x="135" y="551" width="170" height="50" as="geometry"/>
                </mxCell>
                <mxCell id="91" style="edgeStyle=orthogonalEdgeStyle;rounded=0;html=1;exitX=0.5;exitY=1;exitDx=0;exitDy=0;entryX=0.5;entryY=0;entryDx=0;entryDy=0;fontColor=#000000;" parent="48" source="88" edge="1">
                    <mxGeometry relative="1" as="geometry">
                        <mxPoint x="220" y="701" as="targetPoint"/>
                    </mxGeometry>
                </mxCell>
                <mxCell id="88" value="感情分析AIとの会話内容を削除し，&lt;br&gt;「メイン画面」を表示する" style="rounded=1;whiteSpace=wrap;html=1;fillColor=none;" parent="48" vertex="1">
                    <mxGeometry x="99.09181818181818" y="631" width="241.8181818181818" height="50" as="geometry"/>
                </mxCell>
                <mxCell id="94" value="[取り消し]" style="text;html=1;strokeColor=none;fillColor=none;align=center;verticalAlign=middle;whiteSpace=wrap;rounded=0;shadow=0;sketch=0;fillStyle=auto;strokeWidth=1;fontColor=#000000;" parent="48" vertex="1">
                    <mxGeometry x="5" y="471" width="75" height="30" as="geometry"/>
                </mxCell>
                <mxCell id="97" value="[確定]" style="text;html=1;strokeColor=none;fillColor=none;align=center;verticalAlign=middle;whiteSpace=wrap;rounded=0;shadow=0;sketch=0;fillStyle=auto;strokeWidth=1;fontColor=#000000;" parent="48" vertex="1">
                    <mxGeometry x="5" y="541" width="45" height="30" as="geometry"/>
                </mxCell>
                <mxCell id="69" value="" style="group" parent="48" vertex="1" connectable="0">
                    <mxGeometry x="200.91" y="700" width="140" height="40" as="geometry"/>
                </mxCell>
                <mxCell id="64" value="" style="ellipse;shape=doubleEllipse;whiteSpace=wrap;html=1;aspect=fixed;rounded=0;fillColor=none;" parent="69" vertex="1">
                    <mxGeometry width="40" height="40" as="geometry"/>
                </mxCell>
                <mxCell id="68" value="" style="ellipse;whiteSpace=wrap;html=1;aspect=fixed;fillColor=#000000;" parent="69" vertex="1">
                    <mxGeometry x="5.003636363636363" y="5" width="30" height="30" as="geometry"/>
                </mxCell>
                <mxCell id="104" style="edgeStyle=orthogonalEdgeStyle;rounded=0;html=1;exitX=1;exitY=0.5;exitDx=0;exitDy=0;entryX=1;entryY=0.5;entryDx=0;entryDy=0;" parent="48" source="101" target="64" edge="1">
                    <mxGeometry relative="1" as="geometry"/>
                </mxCell>
                <mxCell id="101" value="「AIと会話する画面」&lt;br&gt;を表示する" style="rounded=1;whiteSpace=wrap;html=1;fillColor=none;" parent="48" vertex="1">
                    <mxGeometry x="170.00181818181818" y="478.5" width="241.8181818181818" height="50" as="geometry"/>
                </mxCell>
                <mxCell id="62" style="edgeStyle=none;html=1;exitX=1;exitY=0.5;exitDx=0;exitDy=0;entryX=0;entryY=0.5;entryDx=0;entryDy=0;rounded=0;" parent="42" source="50" target="51" edge="1">
                    <mxGeometry relative="1" as="geometry"/>
                </mxCell>
                <mxCell id="89" style="edgeStyle=orthogonalEdgeStyle;rounded=0;html=1;exitX=0.5;exitY=1;exitDx=0;exitDy=0;entryX=0;entryY=0.5;entryDx=0;entryDy=0;fontColor=#000000;" parent="42" source="83" target="87" edge="1">
                    <mxGeometry relative="1" as="geometry"/>
                </mxCell>
                <mxCell id="98" style="edgeStyle=orthogonalEdgeStyle;html=1;exitX=0.5;exitY=1;exitDx=0;exitDy=0;entryX=0.5;entryY=0;entryDx=0;entryDy=0;rounded=0;" parent="42" source="51" target="81" edge="1">
                    <mxGeometry relative="1" as="geometry"/>
                </mxCell>
                <mxCell id="102" style="edgeStyle=orthogonalEdgeStyle;rounded=0;html=1;exitX=1;exitY=0.5;exitDx=0;exitDy=0;entryX=0;entryY=0.5;entryDx=0;entryDy=0;" parent="42" source="83" target="101" edge="1">
                    <mxGeometry relative="1" as="geometry"/>
                </mxCell>
            </root>
        </mxGraphModel>
    </diagram>
</mxfile>